<svg width="2140" height="484" viewBox="0 0 2140 484" fill="none" xmlns="http://www.w3.org/2000/svg">
<g clip-path="url(#clip0_15100_11)">
<path d="M235.248 0.5C365.172 0.5 470.496 105.824 470.496 235.748C470.496 365.672 365.172 470.996 235.248 470.996C105.324 470.996 0 365.672 0 235.748C0.000115454 105.824 105.324 0.500115 235.248 0.5ZM369.175 312.113C332.962 304.221 306.909 304.335 285.427 309.092C264.881 313.641 248.911 322.737 238.008 327.711C226.938 332.761 216.435 336.317 199.82 335.671C182.21 334.986 156.478 329.498 115.786 313.244C103.8 308.457 90.2022 314.292 85.4141 326.278C80.6263 338.265 86.4618 351.863 98.4482 356.651C141.502 373.849 172.859 381.4 198.004 382.378C224.144 383.394 242.064 377.237 257.408 370.236C272.919 363.16 281.356 357.867 295.531 354.729C308.771 351.797 327.756 350.925 359.221 357.783C371.832 360.532 384.284 352.536 387.033 339.925C389.782 327.314 381.786 314.862 369.175 312.113ZM369.175 204.259C332.962 196.366 306.909 196.481 285.427 201.237C264.881 205.786 248.911 214.882 238.008 219.856C226.938 224.907 216.435 228.462 199.82 227.816C182.21 227.132 156.478 221.644 115.786 205.39C103.8 200.602 90.2022 206.438 85.4141 218.424C80.6261 230.41 86.4617 244.009 98.4482 248.797C141.502 265.994 172.859 273.546 198.004 274.523C224.144 275.54 242.064 269.382 257.408 262.382C272.919 255.306 281.356 250.013 295.531 246.874C308.771 243.943 327.756 243.071 359.221 249.929C371.832 252.677 384.285 244.682 387.033 232.07C389.782 219.459 381.786 207.008 369.175 204.259ZM369.175 96.4062C332.962 88.5135 306.909 88.6285 285.427 93.3848C264.881 97.934 248.911 107.03 238.008 112.004C226.938 117.054 216.435 120.61 199.82 119.964C182.21 119.279 156.478 113.791 115.786 97.5371C103.8 92.7496 90.2022 98.5853 85.4141 110.571C80.6263 122.558 86.4618 136.156 98.4482 140.944C141.502 158.142 172.859 165.693 198.004 166.671C224.144 167.687 242.064 161.53 257.408 154.529C272.919 147.453 281.356 142.16 295.531 139.021C308.771 136.09 327.756 135.218 359.221 142.076C371.832 144.825 384.284 136.829 387.033 124.218C389.782 111.607 381.786 99.1551 369.175 96.4062Z" fill="#1989FD"/>
</g>
<path d="M588.393 335V130.6H709.633V167H626.473V214.04H709.633V250.44H626.473V298.6H709.633V335H588.393ZM791.614 338.36C754.934 338.36 731.974 324.36 718.814 298.6L753.814 281.8C761.654 297.2 775.374 305.6 793.294 305.6C812.054 305.6 821.294 296.64 821.294 285.72C821.294 273.68 803.094 271.44 782.934 266.96C754.934 261.08 725.534 252.12 725.534 217.68C725.534 191.36 751.014 167.56 789.934 167.56C823.254 167.56 844.254 180.44 856.854 201.44L824.654 217.68C817.934 206.2 805.614 198.92 789.934 198.92C772.014 198.92 763.614 207.32 763.614 216.56C763.614 227.48 776.494 230.28 801.134 235.6C828.014 240.92 858.814 250.44 858.814 284.88C858.814 307.84 838.374 338.36 791.614 338.36ZM965.936 338.36C943.536 338.36 923.936 330.24 912.456 315.68V410.32H874.936V171.2H912.456V193.04C923.936 177.64 943.256 167.84 965.656 167.84C1006.82 167.84 1046.3 198.92 1046.3 253.24C1046.3 307 1005.42 338.36 965.936 338.36ZM959.776 303.64C987.496 303.64 1009.06 281.24 1009.06 252.68C1009.06 224.4 987.496 202.28 959.776 202.28C931.496 202.28 911.056 224.68 911.056 252.68C911.056 280.96 931.496 303.64 959.776 303.64ZM1144.53 338.36C1093.01 338.36 1058.01 300.84 1058.01 253.52C1058.01 205.64 1095.25 167.84 1143.13 167.84C1191.85 167.84 1227.41 203.68 1227.41 252.12V266.4H1094.13C1099.45 289.64 1117.65 305.04 1144.53 305.04C1165.81 305.04 1182.05 293.84 1189.89 276.2L1220.97 294.12C1206.69 320.72 1181.49 338.36 1144.53 338.36ZM1143.13 201.16C1120.45 201.16 1102.81 214.6 1096.09 234.76H1189.05C1183.45 212.64 1166.65 201.16 1143.13 201.16ZM1244.35 335V171.2H1281.87V195.56C1289.43 179.32 1303.43 171.2 1323.87 171.2C1335.91 171.2 1345.15 174 1352.71 178.2L1338.43 214.04C1332.83 210.4 1326.67 207.6 1315.75 207.6C1293.63 207.6 1282.15 219.36 1282.15 247.64V335H1244.35Z" fill="#F7F7F7"/>
<path d="M1416.18 335L1357.94 130.6H1397.7L1436.34 273.68L1479.18 130.6H1516.7L1559.26 273.12L1597.62 130.6H1635.98L1578.3 335H1540.5L1497.66 190.8L1454.82 335H1416.18ZM1701.66 338.36C1662.18 338.36 1621.02 307 1621.02 253.24C1621.02 198.92 1660.78 167.84 1702.22 167.84C1723.78 167.84 1742.82 176.52 1754.86 190.8V171.2H1792.66V335H1754.86V313.72C1742.82 329.12 1723.22 338.36 1701.66 338.36ZM1707.82 303.64C1736.1 303.64 1756.82 280.96 1756.82 252.68C1756.82 224.68 1736.1 202.28 1707.82 202.28C1679.82 202.28 1658.26 224.4 1658.26 252.68C1658.26 281.24 1679.82 303.64 1707.82 303.64ZM1868.23 335L1805.79 171.2H1845.27L1887.55 286.56L1928.99 171.2H1967.91L1906.31 335H1868.23ZM2050.43 338.36C1998.91 338.36 1963.91 300.84 1963.91 253.52C1963.91 205.64 2001.15 167.84 2049.03 167.84C2097.75 167.84 2133.31 203.68 2133.31 252.12V266.4H2000.03C2005.35 289.64 2023.55 305.04 2050.43 305.04C2071.71 305.04 2087.95 293.84 2095.79 276.2L2126.87 294.12C2112.59 320.72 2087.39 338.36 2050.43 338.36ZM2049.03 201.16C2026.35 201.16 2008.71 214.6 2001.99 234.76H2094.95C2089.35 212.64 2072.55 201.16 2049.03 201.16Z" fill="#1989FD"/>
<defs>
<clipPath id="clip0_15100_11">
<rect width="496.633" height="483" fill="white" transform="translate(0 0.5)"/>
</clipPath>
</defs>
</svg>
